{
	"asset":{
		"generator":"Khronos glTF Blender I/O v4.5.51",
		"version":"2.0"
	},
	"scene":0,
	"scenes":[
		{
			"name":"Scene",
			"nodes":[
				0,
				1,
				2,
				3,
				4,
				5
			]
		}
	],
	"nodes":[
		{
			"mesh":0,
			"name":"UpperTerminal",
			"rotation":[
				0,
				0,
				-0.7071068286895752,
				0.7071068286895752
			],
			"translation":[
				30,
				6,
				0
			]
		},
		{
			"mesh":1,
			"name":"BottomTerminal",
			"translation":[
				30,
				4,
				2
			]
		},
		{
			"mesh":2,
			"name":"UpperTerminalGlass",
			"rotation":[
				0,
				0,
				-0.7071068286895752,
				0.7071068286895752
			],
			"translation":[
				30,
				6,
				0
			]
		},
		{
			"mesh":3,
			"name":"UpperTerminalGlassRubber",
			"rotation":[
				0,
				0,
				-0.7071068286895752,
				0.7071068286895752
			],
			"translation":[
				30,
				6,
				0
			]
		},
		{
			"mesh":4,
			"name":"UpperTerminalCenterBuilding",
			"rotation":[
				0,
				0,
				-0.7071068286895752,
				0.7071068286895752
			],
			"translation":[
				30,
				6,
				0
			]
		},
		{
			"name":"Empty",
			"scale":[
				127.18077087402344,
				127.18077087402344,
				127.18077087402344
			],
			"translation":[
				23.931379318237305,
				0,
				-95.47560119628906
			]
		}
	],
	"materials":[
		{
			"alphaMode":"BLEND",
			"name":"glass",
			"pbrMetallicRoughness":{
				"baseColorFactor":[
					0.0864996388554573,
					0.18782097101211548,
					0.24228116869926453,
					0.7222222089767456
				],
				"roughnessFactor":0.05000000074505806
			}
		},
		{
			"doubleSided":true,
			"name":"white_metal",
			"pbrMetallicRoughness":{
				"baseColorFactor":[
					0.800000011920929,
					0.800000011920929,
					0.800000011920929,
					1
				],
				"metallicFactor":0.800000011920929,
				"roughnessFactor":0.0873015820980072
			}
		},
		{
			"doubleSided":true,
			"name":"white_paint",
			"pbrMetallicRoughness":{
				"baseColorFactor":[
					0.800000011920929,
					0.800000011920929,
					0.800000011920929,
					1
				],
				"metallicFactor":0,
				"roughnessFactor":0.5
			}
		},
		{
			"doubleSided":true,
			"name":"gray_paint",
			"pbrMetallicRoughness":{
				"baseColorFactor":[
					0.5576812028884888,
					0.5576812028884888,
					0.5576812028884888,
					1
				],
				"metallicFactor":0,
				"roughnessFactor":0.6666666865348816
			}
		},
		{
			"doubleSided":true,
			"name":"black_rubber",
			"pbrMetallicRoughness":{
				"baseColorFactor":[
					0.007498980034142733,
					0.007499039638787508,
					0.007499034982174635,
					1
				],
				"metallicFactor":0,
				"roughnessFactor":0.7063491940498352
			}
		}
	],
	"meshes":[
		{
			"name":"Cylinder.001",
			"primitives":[
				{
					"attributes":{
						"POSITION":0,
						"NORMAL":1,
						"TEXCOORD_0":2,
						"COLOR_0":3,
						"COLOR_1":4
					},
					"indices":5,
					"material":0
				},
				{
					"attributes":{
						"POSITION":6,
						"NORMAL":7,
						"TEXCOORD_0":8,
						"COLOR_0":9,
						"COLOR_1":10
					},
					"indices":11,
					"material":1
				},
				{
					"attributes":{
						"POSITION":12,
						"NORMAL":13,
						"TEXCOORD_0":14,
						"COLOR_0":15,
						"COLOR_1":16
					},
					"indices":17,
					"material":2
				}
			]
		},
		{
			"name":"Cube.007",
			"primitives":[
				{
					"attributes":{
						"POSITION":18,
						"NORMAL":19,
						"TEXCOORD_0":20,
						"COLOR_0":21,
						"COLOR_1":22
					},
					"indices":23,
					"material":3
				}
			]
		},
		{
			"name":"Cylinder.002",
			"primitives":[
				{
					"attributes":{
						"POSITION":24,
						"NORMAL":25,
						"TEXCOORD_0":26,
						"COLOR_0":27,
						"COLOR_1":28
					},
					"indices":29,
					"material":0
				}
			]
		},
		{
			"name":"Cylinder.003",
			"primitives":[
				{
					"attributes":{
						"POSITION":30,
						"NORMAL":31,
						"TEXCOORD_0":32,
						"COLOR_0":33,
						"COLOR_1":34
					},
					"indices":35,
					"material":4
				}
			]
		},
		{
			"name":"Cylinder.004",
			"primitives":[
				{
					"attributes":{
						"POSITION":36,
						"NORMAL":37,
						"TEXCOORD_0":38,
						"COLOR_0":39,
						"COLOR_1":40
					},
					"indices":41,
					"material":0
				},
				{
					"attributes":{
						"POSITION":42,
						"NORMAL":43,
						"TEXCOORD_0":44,
						"COLOR_0":45,
						"COLOR_1":46
					},
					"indices":47,
					"material":2
				}
			]
		}
	],
	"accessors":[
		{
			"bufferView":0,
			"componentType":5126,
			"count":18,
			"max":[
				2.5682032108306885,
				308.4091796875,
				9.144075393676758
			],
			"min":[
				-2.568201780319214,
				-308.4539794921875,
				-2.540992021560669
			],
			"type":"VEC3"
		},
		{
			"bufferView":1,
			"componentType":5126,
			"count":18,
			"type":"VEC3"
		},
		{
			"bufferView":2,
			"componentType":5126,
			"count":18,
			"type":"VEC2"
		},
		{
			"bufferView":3,
			"componentType":5121,
			"count":18,
			"normalized":true,
			"type":"VEC4"
		},
		{
			"bufferView":4,
			"componentType":5123,
			"count":18,
			"normalized":true,
			"type":"VEC4"
		},
		{
			"bufferView":5,
			"componentType":5123,
			"count":36,
			"type":"SCALAR"
		},
		{
			"bufferView":6,
			"componentType":5126,
			"count":125,
			"max":[
				3.2045340538024902,
				310,
				10.000000953674316
			],
			"min":[
				-3.2045340538024902,
				-310,
				-9.024173736572266
			],
			"type":"VEC3"
		},
		{
			"bufferView":7,
			"componentType":5126,
			"count":125,
			"type":"VEC3"
		},
		{
			"bufferView":8,
			"componentType":5126,
			"count":125,
			"type":"VEC2"
		},
		{
			"bufferView":9,
			"componentType":5121,
			"count":125,
			"normalized":true,
			"type":"VEC4"
		},
		{
			"bufferView":10,
			"componentType":5123,
			"count":125,
			"normalized":true,
			"type":"VEC4"
		},
		{
			"bufferView":11,
			"componentType":5123,
			"count":285,
			"type":"SCALAR"
		},
		{
			"bufferView":12,
			"componentType":5126,
			"count":341,
			"max":[
				3.2045340538024902,
				310,
				10.000000953674316
			],
			"min":[
				-3.2045340538024902,
				-310,
				-9.024173736572266
			],
			"type":"VEC3"
		},
		{
			"bufferView":13,
			"componentType":5126,
			"count":341,
			"type":"VEC3"
		},
		{
			"bufferView":14,
			"componentType":5126,
			"count":341,
			"type":"VEC2"
		},
		{
			"bufferView":15,
			"componentType":5121,
			"count":341,
			"normalized":true,
			"type":"VEC4"
		},
		{
			"bufferView":16,
			"componentType":5123,
			"count":341,
			"normalized":true,
			"type":"VEC4"
		},
		{
			"bufferView":17,
			"componentType":5123,
			"count":579,
			"type":"SCALAR"
		},
		{
			"bufferView":18,
			"componentType":5126,
			"count":24,
			"max":[
				302.70928955078125,
				-1.2549999952316284,
				4.357745170593262
			],
			"min":[
				-302.70928955078125,
				-3.999999761581421,
				-4.357745170593262
			],
			"type":"VEC3"
		},
		{
			"bufferView":19,
			"componentType":5126,
			"count":24,
			"type":"VEC3"
		},
		{
			"bufferView":20,
			"componentType":5126,
			"count":24,
			"type":"VEC2"
		},
		{
			"bufferView":21,
			"componentType":5121,
			"count":24,
			"normalized":true,
			"type":"VEC4"
		},
		{
			"bufferView":22,
			"componentType":5123,
			"count":24,
			"normalized":true,
			"type":"VEC4"
		},
		{
			"bufferView":23,
			"componentType":5123,
			"count":36,
			"type":"SCALAR"
		},
		{
			"bufferView":24,
			"componentType":5126,
			"count":4,
			"max":[
				2.5681986808776855,
				308.4091796875,
				9.144075393676758
			],
			"min":[
				-2.568201780319214,
				-308.4539794921875,
				9.144073486328125
			],
			"type":"VEC3"
		},
		{
			"bufferView":25,
			"componentType":5126,
			"count":4,
			"type":"VEC3"
		},
		{
			"bufferView":26,
			"componentType":5126,
			"count":4,
			"type":"VEC2"
		},
		{
			"bufferView":27,
			"componentType":5121,
			"count":4,
			"normalized":true,
			"type":"VEC4"
		},
		{
			"bufferView":28,
			"componentType":5123,
			"count":4,
			"normalized":true,
			"type":"VEC4"
		},
		{
			"bufferView":29,
			"componentType":5123,
			"count":6,
			"type":"SCALAR"
		},
		{
			"bufferView":30,
			"componentType":5126,
			"count":5660,
			"max":[
				2.5681986808776855,
				308.4091796875,
				9.294075012207031
			],
			"min":[
				-2.568201780319214,
				-308.4539794921875,
				8.994073867797852
			],
			"type":"VEC3"
		},
		{
			"bufferView":31,
			"componentType":5126,
			"count":5660,
			"type":"VEC3"
		},
		{
			"bufferView":32,
			"componentType":5126,
			"count":5660,
			"type":"VEC2"
		},
		{
			"bufferView":33,
			"componentType":5121,
			"count":5660,
			"normalized":true,
			"type":"VEC4"
		},
		{
			"bufferView":34,
			"componentType":5123,
			"count":5660,
			"normalized":true,
			"type":"VEC4"
		},
		{
			"bufferView":35,
			"componentType":5123,
			"count":9696,
			"type":"SCALAR"
		},
		{
			"bufferView":36,
			"componentType":5126,
			"count":24,
			"max":[
				3.0523877143859863,
				23.5253849029541,
				39.515811920166016
			],
			"min":[
				-5.790461540222168,
				-89.32080078125,
				13.039493560791016
			],
			"type":"VEC3"
		},
		{
			"bufferView":37,
			"componentType":5126,
			"count":24,
			"type":"VEC3"
		},
		{
			"bufferView":38,
			"componentType":5126,
			"count":24,
			"type":"VEC2"
		},
		{
			"bufferView":39,
			"componentType":5121,
			"count":24,
			"normalized":true,
			"type":"VEC4"
		},
		{
			"bufferView":40,
			"componentType":5123,
			"count":24,
			"normalized":true,
			"type":"VEC4"
		},
		{
			"bufferView":41,
			"componentType":5123,
			"count":36,
			"type":"SCALAR"
		},
		{
			"bufferView":42,
			"componentType":5126,
			"count":110,
			"max":[
				6.000002861022949,
				30,
				40.0948371887207
			],
			"min":[
				-9,
				-96,
				10
			],
			"type":"VEC3"
		},
		{
			"bufferView":43,
			"componentType":5126,
			"count":110,
			"type":"VEC3"
		},
		{
			"bufferView":44,
			"componentType":5126,
			"count":110,
			"type":"VEC2"
		},
		{
			"bufferView":45,
			"componentType":5121,
			"count":110,
			"normalized":true,
			"type":"VEC4"
		},
		{
			"bufferView":46,
			"componentType":5123,
			"count":110,
			"normalized":true,
			"type":"VEC4"
		},
		{
			"bufferView":47,
			"componentType":5123,
			"count":216,
			"type":"SCALAR"
		}
	],
	"bufferViews":[
		{
			"buffer":0,
			"byteLength":216,
			"byteOffset":0,
			"target":34962
		},
		{
			"buffer":0,
			"byteLength":216,
			"byteOffset":216,
			"target":34962
		},
		{
			"buffer":0,
			"byteLength":144,
			"byteOffset":432,
			"target":34962
		},
		{
			"buffer":0,
			"byteLength":72,
			"byteOffset":576,
			"target":34962
		},
		{
			"buffer":0,
			"byteLength":144,
			"byteOffset":648,
			"target":34962
		},
		{
			"buffer":0,
			"byteLength":72,
			"byteOffset":792,
			"target":34963
		},
		{
			"buffer":0,
			"byteLength":1500,
			"byteOffset":864,
			"target":34962
		},
		{
			"buffer":0,
			"byteLength":1500,
			"byteOffset":2364,
			"target":34962
		},
		{
			"buffer":0,
			"byteLength":1000,
			"byteOffset":3864,
			"target":34962
		},
		{
			"buffer":0,
			"byteLength":500,
			"byteOffset":4864,
			"target":34962
		},
		{
			"buffer":0,
			"byteLength":1000,
			"byteOffset":5364,
			"target":34962
		},
		{
			"buffer":0,
			"byteLength":570,
			"byteOffset":6364,
			"target":34963
		},
		{
			"buffer":0,
			"byteLength":4092,
			"byteOffset":6936,
			"target":34962
		},
		{
			"buffer":0,
			"byteLength":4092,
			"byteOffset":11028,
			"target":34962
		},
		{
			"buffer":0,
			"byteLength":2728,
			"byteOffset":15120,
			"target":34962
		},
		{
			"buffer":0,
			"byteLength":1364,
			"byteOffset":17848,
			"target":34962
		},
		{
			"buffer":0,
			"byteLength":2728,
			"byteOffset":19212,
			"target":34962
		},
		{
			"buffer":0,
			"byteLength":1158,
			"byteOffset":21940,
			"target":34963
		},
		{
			"buffer":0,
			"byteLength":288,
			"byteOffset":23100,
			"target":34962
		},
		{
			"buffer":0,
			"byteLength":288,
			"byteOffset":23388,
			"target":34962
		},
		{
			"buffer":0,
			"byteLength":192,
			"byteOffset":23676,
			"target":34962
		},
		{
			"buffer":0,
			"byteLength":96,
			"byteOffset":23868,
			"target":34962
		},
		{
			"buffer":0,
			"byteLength":192,
			"byteOffset":23964,
			"target":34962
		},
		{
			"buffer":0,
			"byteLength":72,
			"byteOffset":24156,
			"target":34963
		},
		{
			"buffer":0,
			"byteLength":48,
			"byteOffset":24228,
			"target":34962
		},
		{
			"buffer":0,
			"byteLength":48,
			"byteOffset":24276,
			"target":34962
		},
		{
			"buffer":0,
			"byteLength":32,
			"byteOffset":24324,
			"target":34962
		},
		{
			"buffer":0,
			"byteLength":16,
			"byteOffset":24356,
			"target":34962
		},
		{
			"buffer":0,
			"byteLength":32,
			"byteOffset":24372,
			"target":34962
		},
		{
			"buffer":0,
			"byteLength":12,
			"byteOffset":24404,
			"target":34963
		},
		{
			"buffer":0,
			"byteLength":67920,
			"byteOffset":24416,
			"target":34962
		},
		{
			"buffer":0,
			"byteLength":67920,
			"byteOffset":92336,
			"target":34962
		},
		{
			"buffer":0,
			"byteLength":45280,
			"byteOffset":160256,
			"target":34962
		},
		{
			"buffer":0,
			"byteLength":22640,
			"byteOffset":205536,
			"target":34962
		},
		{
			"buffer":0,
			"byteLength":45280,
			"byteOffset":228176,
			"target":34962
		},
		{
			"buffer":0,
			"byteLength":19392,
			"byteOffset":273456,
			"target":34963
		},
		{
			"buffer":0,
			"byteLength":288,
			"byteOffset":292848,
			"target":34962
		},
		{
			"buffer":0,
			"byteLength":288,
			"byteOffset":293136,
			"target":34962
		},
		{
			"buffer":0,
			"byteLength":192,
			"byteOffset":293424,
			"target":34962
		},
		{
			"buffer":0,
			"byteLength":96,
			"byteOffset":293616,
			"target":34962
		},
		{
			"buffer":0,
			"byteLength":192,
			"byteOffset":293712,
			"target":34962
		},
		{
			"buffer":0,
			"byteLength":72,
			"byteOffset":293904,
			"target":34963
		},
		{
			"buffer":0,
			"byteLength":1320,
			"byteOffset":293976,
			"target":34962
		},
		{
			"buffer":0,
			"byteLength":1320,
			"byteOffset":295296,
			"target":34962
		},
		{
			"buffer":0,
			"byteLength":880,
			"byteOffset":296616,
			"target":34962
		},
		{
			"buffer":0,
			"byteLength":440,
			"byteOffset":297496,
			"target":34962
		},
		{
			"buffer":0,
			"byteLength":880,
			"byteOffset":297936,
			"target":34962
		},
		{
			"buffer":0,
			"byteLength":432,
			"byteOffset":298816,
			"target":34963
		}
	],
	"buffers":[
		{
			"byteLength":299248,
			"uri":"terminal.bin"
		}
	]
}
